<svg xmlns="http://www.w3.org/2000/svg" width="41.114" height="43.83" viewBox="0 0 41.114 43.83">
  <g id="Group_124" data-name="Group 124" transform="translate(-624.087 -4116.651)">
    <g id="Group_9" data-name="Group 9" transform="translate(658.198 4123.645)">
      <path id="Path_6" data-name="Path 6" d="M0,0A23.942,23.942,0,0,0-33.82,0a1,1,0,0,0,0,1.409,1,1,0,0,0,1.409,0,21.951,21.951,0,0,1,31,0A1,1,0,0,0-.7,1.7.984.984,0,0,0,0,1.409,1,1,0,0,0,0,0"/>
    </g>
    <g id="Group_10" data-name="Group 10" transform="translate(658.228 4118.633)">
      <path id="Path_7" data-name="Path 7" d="M0,0A1,1,0,0,0-1,1V5.979H-5.978a1,1,0,0,0-1,1,1,1,0,0,0,1,1H0a1,1,0,0,0,1-1V1A1,1,0,0,0,0,0"/>
    </g>
    <g id="Group_11" data-name="Group 11" transform="translate(662.351 4139.027)">
      <path id="Path_8" data-name="Path 8" d="M0,0-7.495-8.232a3.884,3.884,0,0,0-5.394.012,3.724,3.724,0,0,0-.963,1.646,3.89,3.89,0,0,0-5.016.347,3.774,3.774,0,0,0-.966,1.644,3.886,3.886,0,0,0-5.012.349A3.807,3.807,0,0,0-25.8-2.626l-3.531-3.532a3.817,3.817,0,0,0-5.394.012,3.809,3.809,0,0,0,0,5.383L-21.159,12.8-29.2,14.067a4.464,4.464,0,0,0-3.816,4.4,2.993,2.993,0,0,0,2.989,2.989h18.79a10.892,10.892,0,0,0,7.75-3.212l3.132-3.135A10.866,10.866,0,0,0,2.85,7.367,10.932,10.932,0,0,0,0,0M-12.783-2.731h0M-1.764,13.7-4.9,16.835a8.92,8.92,0,0,1-6.343,2.626h-18.79a1,1,0,0,1-1-1,2.467,2.467,0,0,1,2.119-2.427l9.994-1.57a1,1,0,0,0,.793-.676,1,1,0,0,0-.243-1.012L-33.317-2.172a1.822,1.822,0,0,1,.012-2.577,1.817,1.817,0,0,1,1.283-.53,1.809,1.809,0,0,1,1.281.53l5.853,5.863c.014.016.032.032.048.048l4.073,4.071a1,1,0,0,0,1.409,0,1,1,0,0,0,0-1.409L-23.465-.283a1.823,1.823,0,0,1,.046-2.543,1.859,1.859,0,0,1,2.563,0L-18.9-.867c.012.013.022.024.033.034l2.081,2.079a1,1,0,0,0,1.409,0,1,1,0,0,0,0-1.409l-2.105-2.1a1.827,1.827,0,0,1,.038-2.554,1.857,1.857,0,0,1,2.563,0L-12.8-2.742s0,0,0,0v0l.005,0s0,0,0,0h0a0,0,0,0,0,0,0h0s0,0,0,0a0,0,0,0,0,0,0h0a1,1,0,0,0,1.387-.026,1,1,0,0,0,0-1.407l-.119-.119a1.822,1.822,0,0,1,.044-2.545,1.887,1.887,0,0,1,2.53-.034l7.461,8.2A8.935,8.935,0,0,1,.859,7.37,8.9,8.9,0,0,1-1.764,13.7"/>
    </g>
  </g>
</svg>
