<svg xmlns="http://www.w3.org/2000/svg" width="165.304" height="21.454" viewBox="0 0 165.304 21.454">
  <g id="Group_123" data-name="Group 123" transform="translate(-563.497 -1349.027)">
    <g id="Group_12" data-name="Group 12" transform="translate(570.33 1362.738)">
      <path id="Path_9" data-name="Path 9" d="M0,0C0,.438-.011.889-.031,1.348s-.053.929-.094,1.411a7.5,7.5,0,0,1-.424,1.8,5.139,5.139,0,0,1-.94,1.6A4.652,4.652,0,0,1-3.01,7.3a4.919,4.919,0,0,1-2.163.439A1.6,1.6,0,0,1-6.5,7.3a1.781,1.781,0,0,1-.329-1.1V5.815A1.872,1.872,0,0,1-6.8,5.453a4.4,4.4,0,0,0,3.181-.908A4.246,4.246,0,0,0-2.727,1.5V-13.569a1.243,1.243,0,0,1,.377-.077c.145-.012.271-.017.374-.017a5,5,0,0,1,.748.061,1.114,1.114,0,0,1,.522.284,1.752,1.752,0,0,1,.5.6,2.032,2.032,0,0,1,.2.972Z" fill="#2b2e34"/>
    </g>
    <g id="Group_13" data-name="Group 13" transform="translate(579.225 1358.312)">
      <path id="Path_10" data-name="Path 10" d="M0,0H7.115V2.413H0v7.4H7.963a1.968,1.968,0,0,1,1.488.485A1.7,1.7,0,0,1,9.906,11.5a1.468,1.468,0,0,1-.017.235,1.5,1.5,0,0,0-.015.2v.22h-12.6V-8.808h12.1a1.026,1.026,0,0,1,.064.329v.329a1.817,1.817,0,0,1-.409,1.207,1.893,1.893,0,0,1-1.5.486H0Z" fill="#2b2e34"/>
    </g>
    <g id="Group_14" data-name="Group 14" transform="translate(606.309 1366.305)">
      <path id="Path_11" data-name="Path 11" d="M0,0V-16.834a.932.932,0,0,0,.22-.031c.062,0,.139-.006.235-.014a2.351,2.351,0,0,1,.3-.017,2.386,2.386,0,0,1,.6.079,1.588,1.588,0,0,1,.58.282,1.472,1.472,0,0,1,.438.6,2.542,2.542,0,0,1,.173,1.019V4.168H0L-10.657-12.1V4.168H-13.2V-16.74a3.315,3.315,0,0,1,.532-.109,5.317,5.317,0,0,1,.689-.047,2.109,2.109,0,0,1,1.082.235,2.3,2.3,0,0,1,.736.8Z" fill="#2b2e34"/>
    </g>
    <g id="Group_15" data-name="Group 15" transform="translate(641.087 1361.791)">
      <path id="Path_12" data-name="Path 12" d="M0,0V8.682H-2.759V.062L-9.5-12.068a2.582,2.582,0,0,1,.721-.251,4.241,4.241,0,0,1,.909-.094,1.914,1.914,0,0,1,1.222.329,3.142,3.142,0,0,1,.752.956l4.546,8.619L3.2-10.877a4.774,4.774,0,0,1,.814-1.051A1.769,1.769,0,0,1,5.3-12.383a3.827,3.827,0,0,1,.69.064,7.026,7.026,0,0,1,.752.187Z" fill="#2b2e34"/>
    </g>
    <g id="Group_16" data-name="Group 16" transform="translate(661.135 1357.854)">
      <path id="Path_13" data-name="Path 13" d="M0,0H7.056a1.174,1.174,0,0,1,.05.242V.815a1.893,1.893,0,0,1-.4,1.112,1.41,1.41,0,0,1-.877.454H0v9.956H-2.724V-8.608H9.361a1.034,1.034,0,0,1,.063.328v.326a1.81,1.81,0,0,1-.407,1.207,1.937,1.937,0,0,1-1.533.486H0Z" fill="#2b2e34"/>
    </g>
    <g id="Group_17" data-name="Group 17" transform="translate(683.178 1370.191)">
      <path id="Path_14" data-name="Path 14" d="M0,0-1.92-5.636H-9.655L-11.517,0H-14.04l6.934-20.758a3.2,3.2,0,0,1,.6-.189,3.555,3.555,0,0,1,.8-.093,1.87,1.87,0,0,1,.988.267,1.806,1.806,0,0,1,.7,1.017L2.607,0ZM-5.788-17.847-9.026-7.858h6.447Z" fill="#2b2e34"/>
    </g>
    <g id="Group_18" data-name="Group 18" transform="translate(692.231 1370.191)">
      <path id="Path_15" data-name="Path 15" d="M0,0H-2.756V-20.979a1.037,1.037,0,0,0,.251-.03,2.313,2.313,0,0,0,.25-.015,2.016,2.016,0,0,1,.282-.016,2.569,2.569,0,0,1,.611.079,2.018,2.018,0,0,1,.641.28,1.544,1.544,0,0,1,.517.6A2.2,2.2,0,0,1,0-19.067Z" fill="#2b2e34"/>
    </g>
    <g id="Group_19" data-name="Group 19" transform="translate(710.672 1355.006)">
      <path id="Path_16" data-name="Path 16" d="M0,0A6.833,6.833,0,0,1-.375,2.348a5.887,5.887,0,0,1-1,1.784A5.75,5.75,0,0,1-2.832,5.386a6.055,6.055,0,0,1-1.77.719l5.73,9.081a2.441,2.441,0,0,1-.72.218,4.946,4.946,0,0,1-.752.064,2.49,2.49,0,0,1-2.222-1.221L-7.451,6.608h-2.787v8.578h-2.724V-5.7c.752-.105,1.56-.176,2.428-.219s1.7-.061,2.488-.061q4.288,0,6.169,1.456A5.363,5.363,0,0,1,0,0M-2.849.156A4.407,4.407,0,0,0-3.21-1.753,2.738,2.738,0,0,0-4.242-2.927a4.364,4.364,0,0,0-1.628-.58,13.271,13.271,0,0,0-2.114-.156c-.5,0-.939.01-1.314.031s-.719.052-1.033.1h.062V4.29h2.254a9.178,9.178,0,0,0,2.1-.22A4.426,4.426,0,0,0-4.29,3.351,3.353,3.353,0,0,0-3.224,2.066,4.392,4.392,0,0,0-2.849.156" fill="#2b2e34"/>
    </g>
    <g id="Group_20" data-name="Group 20" transform="translate(722.07 1361.519)">
      <path id="Path_17" data-name="Path 17" d="M0,0V8.673H-2.756V.063l-6.73-12.118a2.646,2.646,0,0,1,.719-.25,4.434,4.434,0,0,1,.909-.093,1.9,1.9,0,0,1,1.219.329,3.128,3.128,0,0,1,.752.954L-1.346-2.5l4.54-8.359a4.777,4.777,0,0,1,.813-1.051,1.77,1.77,0,0,1,1.284-.452,3.839,3.839,0,0,1,.69.061,6.531,6.531,0,0,1,.751.188Z" fill="#2b2e34"/>
    </g>
    <g id="Group_21" data-name="Group 21" transform="translate(626.705 1366.305)">
      <path id="Path_18" data-name="Path 18" d="M0,0V-16.834a.932.932,0,0,0,.22-.031c.062,0,.141-.006.235-.014a2.351,2.351,0,0,1,.3-.017,2.374,2.374,0,0,1,.6.079,1.573,1.573,0,0,1,.58.282,1.472,1.472,0,0,1,.438.6,2.525,2.525,0,0,1,.173,1.019V4.168H0L-10.657-12.1V4.168H-13.2V-16.74a3.315,3.315,0,0,1,.532-.109,5.333,5.333,0,0,1,.69-.047,2.114,2.114,0,0,1,1.082.235,2.315,2.315,0,0,1,.737.8Z" fill="#2b2e34"/>
    </g>
  </g>
</svg>
