<svg xmlns="http://www.w3.org/2000/svg" width="570.996" height="58.038" viewBox="0 0 570.996 58.038">
  <path id="Path_98" data-name="Path 98" d="M8.976-1.836A2.314,2.314,0,0,0,10.4-2.3a1.611,1.611,0,0,0,.612-1.377V-50.184a1.35,1.35,0,0,0-.612-1.275,2.783,2.783,0,0,0-1.428-.357v-1.836H28.05v1.836a2.241,2.241,0,0,0-1.071.306.986.986,0,0,0-.561.918,3.177,3.177,0,0,0,.408,1.326q.408.816.918,1.734L42.33-21.012,57.018-47.226q.714-1.326,1.071-2.091a3.31,3.31,0,0,0,.357-1.377q0-1.122-1.326-1.122v-1.836H75.99v1.836a2.783,2.783,0,0,0-1.428.357,1.35,1.35,0,0,0-.612,1.275V-3.672A1.611,1.611,0,0,0,74.562-2.3a2.314,2.314,0,0,0,1.428.459V0H59.976V-1.836q2.754,0,2.754-1.836V-37.536h-.2L42.024,0h-.306L21.624-37.638h-.2V-3.672q0,1.836,2.856,1.836V0H8.976ZM124.644-44.88a25.619,25.619,0,0,0-7.752,1.224,23.686,23.686,0,0,0-6.987,3.519,18.312,18.312,0,0,0-5.049,5.661,15.053,15.053,0,0,0-1.938,7.65,15.053,15.053,0,0,0,1.938,7.65,18.312,18.312,0,0,0,5.049,5.661A23.686,23.686,0,0,0,116.892-10a25.619,25.619,0,0,0,7.752,1.224A25.619,25.619,0,0,0,132.4-10a23.686,23.686,0,0,0,6.987-3.519,18.312,18.312,0,0,0,5.049-5.661,15.053,15.053,0,0,0,1.938-7.65,15.053,15.053,0,0,0-1.938-7.65,18.312,18.312,0,0,0-5.049-5.661,23.686,23.686,0,0,0-6.987-3.519A25.619,25.619,0,0,0,124.644-44.88Zm0-9.384a40.959,40.959,0,0,1,11.424,1.683,35.488,35.488,0,0,1,10.608,5.049,27.319,27.319,0,0,1,7.854,8.517,23.427,23.427,0,0,1,3.06,12.189,23.427,23.427,0,0,1-3.06,12.189,27.319,27.319,0,0,1-7.854,8.517,32.847,32.847,0,0,1-10.608,4.9A44.771,44.771,0,0,1,124.644.306a44.771,44.771,0,0,1-11.424-1.53,32.847,32.847,0,0,1-10.608-4.9,27.319,27.319,0,0,1-7.854-8.517A23.427,23.427,0,0,1,91.7-26.826a23.427,23.427,0,0,1,3.06-12.189,27.319,27.319,0,0,1,7.854-8.517,35.488,35.488,0,0,1,10.608-5.049A40.959,40.959,0,0,1,124.644-54.264Zm77.01,45.492a37.872,37.872,0,0,0,8.364-.816,13.09,13.09,0,0,0,5.916-2.907,12.723,12.723,0,0,0,3.519-5.559,27.786,27.786,0,0,0,1.173-8.772,27.786,27.786,0,0,0-1.173-8.772,12.723,12.723,0,0,0-3.519-5.559,13.09,13.09,0,0,0-5.916-2.907,37.872,37.872,0,0,0-8.364-.816h-15.81V-8.772Zm4.08-44.88a32.551,32.551,0,0,1,10.455,1.632,22.978,22.978,0,0,1,8.415,4.947,22.936,22.936,0,0,1,5.61,8.364,31.613,31.613,0,0,1,2.04,11.883,31.613,31.613,0,0,1-2.04,11.883,22.936,22.936,0,0,1-5.61,8.364,22.978,22.978,0,0,1-8.415,4.947A32.551,32.551,0,0,1,205.734,0H171.87V-1.836q2.346,0,2.346-1.836V-49.98q0-1.836-2.346-1.836v-1.836Zm91.392,11.016a1.871,1.871,0,0,0-.867-1.683,5.86,5.86,0,0,0-3.009-.561H260.2v12.648h19.992a7.213,7.213,0,0,0,3.162-.561q1.122-.561,1.122-2.907h1.836v15.912h-1.836q0-2.346-1.122-3.009a6.254,6.254,0,0,0-3.162-.663H260.2V-9.384H294.27a4.106,4.106,0,0,0,2.5-.714,2.281,2.281,0,0,0,.969-1.938h1.836V1.938h-1.836q0-1.53-.969-1.734a12.51,12.51,0,0,0-2.5-.2H246.738V-1.836a1.959,1.959,0,0,0,1.275-.459,1.675,1.675,0,0,0,.561-1.377V-49.98a1.675,1.675,0,0,0-.561-1.377,1.959,1.959,0,0,0-1.275-.459v-1.836H293.25a5.107,5.107,0,0,0,3.009-.663,2.131,2.131,0,0,0,.867-1.785h1.836v13.464ZM364.548,1.938q0-1.53-.969-1.734a12.51,12.51,0,0,0-2.5-.2H312.528V-1.836q3.06,0,3.06-1.836V-49.98q0-1.836-3.06-1.836v-1.836h17.544v1.836q-2.856,0-2.856,1.836v40.6H361.08a4.106,4.106,0,0,0,2.5-.714,2.281,2.281,0,0,0,.969-1.938h1.836V1.938Zm65.994-47.43a15.482,15.482,0,0,0-6.63,1.428,15.792,15.792,0,0,0-5.253,3.927,18.864,18.864,0,0,0-3.468,5.916,20.987,20.987,0,0,0-1.275,7.4,20.987,20.987,0,0,0,1.275,7.4,18.864,18.864,0,0,0,3.468,5.916,15.792,15.792,0,0,0,5.253,3.927,15.482,15.482,0,0,0,6.63,1.428,15.482,15.482,0,0,0,6.63-1.428,15.792,15.792,0,0,0,5.253-3.927,18.864,18.864,0,0,0,3.468-5.916,20.987,20.987,0,0,0,1.275-7.4,20.987,20.987,0,0,0-1.275-7.4,18.864,18.864,0,0,0-3.468-5.916,15.792,15.792,0,0,0-5.253-3.927A15.482,15.482,0,0,0,430.542-45.492Zm0-8.772a29.781,29.781,0,0,1,11.067,2.04,27.354,27.354,0,0,1,8.976,5.712,26.822,26.822,0,0,1,6.018,8.67A27.12,27.12,0,0,1,458.8-26.826,27.12,27.12,0,0,1,456.6-15.81a26.247,26.247,0,0,1-6.018,8.619,26.442,26.442,0,0,1-8.976,5.559A31.171,31.171,0,0,1,430.542.306a31.17,31.17,0,0,1-11.067-1.938A26.442,26.442,0,0,1,410.5-7.191a26.247,26.247,0,0,1-6.018-8.619,27.12,27.12,0,0,1-2.193-11.016,27.12,27.12,0,0,1,2.193-11.016,26.822,26.822,0,0,1,6.018-8.67,27.354,27.354,0,0,1,8.976-5.712A29.781,29.781,0,0,1,430.542-54.264Zm62.322,8.772a15.482,15.482,0,0,0-6.63,1.428,15.792,15.792,0,0,0-5.253,3.927,18.864,18.864,0,0,0-3.468,5.916,20.987,20.987,0,0,0-1.275,7.4,20.987,20.987,0,0,0,1.275,7.4,18.864,18.864,0,0,0,3.468,5.916,15.792,15.792,0,0,0,5.253,3.927,15.482,15.482,0,0,0,6.63,1.428,15.482,15.482,0,0,0,6.63-1.428,15.792,15.792,0,0,0,5.253-3.927,18.864,18.864,0,0,0,3.468-5.916,20.987,20.987,0,0,0,1.275-7.4,20.987,20.987,0,0,0-1.275-7.4,18.864,18.864,0,0,0-3.468-5.916,15.792,15.792,0,0,0-5.253-3.927A15.482,15.482,0,0,0,492.864-45.492Zm0-8.772a29.781,29.781,0,0,1,11.067,2.04,27.354,27.354,0,0,1,8.976,5.712,26.821,26.821,0,0,1,6.018,8.67,27.121,27.121,0,0,1,2.193,11.016,27.121,27.121,0,0,1-2.193,11.016,26.247,26.247,0,0,1-6.018,8.619,26.442,26.442,0,0,1-8.976,5.559A31.17,31.17,0,0,1,492.864.306,31.171,31.171,0,0,1,481.8-1.632a26.442,26.442,0,0,1-8.976-5.559A26.247,26.247,0,0,1,466.8-15.81a27.12,27.12,0,0,1-2.193-11.016A27.12,27.12,0,0,1,466.8-37.842a26.822,26.822,0,0,1,6.018-8.67,27.354,27.354,0,0,1,8.976-5.712A29.781,29.781,0,0,1,492.864-54.264Zm87.108,55.59h-1.224q0-1.122-.969-1.224a20.032,20.032,0,0,0-2.091-.1H532.746a9.027,9.027,0,0,0-1.836.153q-.714.153-.714,1.071h-1.224V-2.448a15.816,15.816,0,0,1,2.7-9.282,28.739,28.739,0,0,1,6.783-6.834,56.253,56.253,0,0,1,8.772-5.2Q551.922-26.01,556-28.2a37.254,37.254,0,0,0,6.783-4.539,7.1,7.1,0,0,0,2.7-5.508,5.975,5.975,0,0,0-.969-3.519,7.571,7.571,0,0,0-2.5-2.244,10.154,10.154,0,0,0-3.366-1.173,21.7,21.7,0,0,0-3.57-.306,18.951,18.951,0,0,0-4.284.612,21.287,21.287,0,0,0-4.9,1.836,16.319,16.319,0,0,0-4.029,2.907,5.272,5.272,0,0,0-1.683,3.825,4.679,4.679,0,0,0,.255,1.326,2.18,2.18,0,0,0,.663,1.122l-1.02.714L529.584-44.37l1.02-.714.816.408a2.024,2.024,0,0,0,.918.2q.612,0,2.244-1.53a31.86,31.86,0,0,1,4.488-3.366,35.1,35.1,0,0,1,7.14-3.366,30.39,30.39,0,0,1,10.2-1.53,31.624,31.624,0,0,1,7.6.918,20.179,20.179,0,0,1,6.63,2.907,15.344,15.344,0,0,1,4.692,5.1,15.048,15.048,0,0,1,1.785,7.6,15.653,15.653,0,0,1-1.836,7.956,17.345,17.345,0,0,1-4.845,5.355,31.638,31.638,0,0,1-6.783,3.723q-3.774,1.53-7.7,3.009T548.4-14.586a23.531,23.531,0,0,0-6.375,4.182v1.02h33.66a5.333,5.333,0,0,0,2.091-.408q.969-.408.969-2.448h1.224Z" transform="translate(-8.976 56.1)" fill="#2b2e34"/>
</svg>
