<svg xmlns="http://www.w3.org/2000/svg" width="571.098" height="58.038" viewBox="0 0 571.098 58.038">
  <path id="Path_99" data-name="Path 99" d="M8.976-1.836A2.314,2.314,0,0,0,10.4-2.3a1.611,1.611,0,0,0,.612-1.377V-50.184a1.35,1.35,0,0,0-.612-1.275,2.783,2.783,0,0,0-1.428-.357v-1.836H28.05v1.836a2.241,2.241,0,0,0-1.071.306.986.986,0,0,0-.561.918,3.177,3.177,0,0,0,.408,1.326q.408.816.918,1.734L42.33-21.012,57.018-47.226q.714-1.326,1.071-2.091a3.31,3.31,0,0,0,.357-1.377q0-1.122-1.326-1.122v-1.836H75.99v1.836a2.783,2.783,0,0,0-1.428.357,1.35,1.35,0,0,0-.612,1.275V-3.672A1.611,1.611,0,0,0,74.562-2.3a2.314,2.314,0,0,0,1.428.459V0H59.976V-1.836q2.754,0,2.754-1.836V-37.536h-.2L42.024,0h-.306L21.624-37.638h-.2V-3.672q0,1.836,2.856,1.836V0H8.976ZM124.644-44.88a25.619,25.619,0,0,0-7.752,1.224,23.686,23.686,0,0,0-6.987,3.519,18.312,18.312,0,0,0-5.049,5.661,15.053,15.053,0,0,0-1.938,7.65,15.053,15.053,0,0,0,1.938,7.65,18.312,18.312,0,0,0,5.049,5.661A23.686,23.686,0,0,0,116.892-10a25.619,25.619,0,0,0,7.752,1.224A25.619,25.619,0,0,0,132.4-10a23.686,23.686,0,0,0,6.987-3.519,18.312,18.312,0,0,0,5.049-5.661,15.053,15.053,0,0,0,1.938-7.65,15.053,15.053,0,0,0-1.938-7.65,18.312,18.312,0,0,0-5.049-5.661,23.686,23.686,0,0,0-6.987-3.519A25.619,25.619,0,0,0,124.644-44.88Zm0-9.384a40.959,40.959,0,0,1,11.424,1.683,35.488,35.488,0,0,1,10.608,5.049,27.319,27.319,0,0,1,7.854,8.517,23.427,23.427,0,0,1,3.06,12.189,23.427,23.427,0,0,1-3.06,12.189,27.319,27.319,0,0,1-7.854,8.517,32.847,32.847,0,0,1-10.608,4.9A44.771,44.771,0,0,1,124.644.306a44.771,44.771,0,0,1-11.424-1.53,32.847,32.847,0,0,1-10.608-4.9,27.319,27.319,0,0,1-7.854-8.517A23.427,23.427,0,0,1,91.7-26.826a23.427,23.427,0,0,1,3.06-12.189,27.319,27.319,0,0,1,7.854-8.517,35.488,35.488,0,0,1,10.608-5.049A40.959,40.959,0,0,1,124.644-54.264Zm77.01,45.492a37.872,37.872,0,0,0,8.364-.816,13.09,13.09,0,0,0,5.916-2.907,12.723,12.723,0,0,0,3.519-5.559,27.786,27.786,0,0,0,1.173-8.772,27.786,27.786,0,0,0-1.173-8.772,12.723,12.723,0,0,0-3.519-5.559,13.09,13.09,0,0,0-5.916-2.907,37.872,37.872,0,0,0-8.364-.816h-15.81V-8.772Zm4.08-44.88a32.551,32.551,0,0,1,10.455,1.632,22.978,22.978,0,0,1,8.415,4.947,22.936,22.936,0,0,1,5.61,8.364,31.613,31.613,0,0,1,2.04,11.883,31.613,31.613,0,0,1-2.04,11.883,22.936,22.936,0,0,1-5.61,8.364,22.978,22.978,0,0,1-8.415,4.947A32.551,32.551,0,0,1,205.734,0H171.87V-1.836q2.346,0,2.346-1.836V-49.98q0-1.836-2.346-1.836v-1.836Zm91.392,11.016a1.871,1.871,0,0,0-.867-1.683,5.86,5.86,0,0,0-3.009-.561H260.2v12.648h19.992a7.213,7.213,0,0,0,3.162-.561q1.122-.561,1.122-2.907h1.836v15.912h-1.836q0-2.346-1.122-3.009a6.254,6.254,0,0,0-3.162-.663H260.2V-9.384H294.27a4.106,4.106,0,0,0,2.5-.714,2.281,2.281,0,0,0,.969-1.938h1.836V1.938h-1.836q0-1.53-.969-1.734a12.51,12.51,0,0,0-2.5-.2H246.738V-1.836a1.959,1.959,0,0,0,1.275-.459,1.675,1.675,0,0,0,.561-1.377V-49.98a1.675,1.675,0,0,0-.561-1.377,1.959,1.959,0,0,0-1.275-.459v-1.836H293.25a5.107,5.107,0,0,0,3.009-.663,2.131,2.131,0,0,0,.867-1.785h1.836v13.464ZM364.548,1.938q0-1.53-.969-1.734a12.51,12.51,0,0,0-2.5-.2H312.528V-1.836q3.06,0,3.06-1.836V-49.98q0-1.836-3.06-1.836v-1.836h17.544v1.836q-2.856,0-2.856,1.836v40.6H361.08a4.106,4.106,0,0,0,2.5-.714,2.281,2.281,0,0,0,.969-1.938h1.836V1.938Zm65.994-47.43a15.482,15.482,0,0,0-6.63,1.428,15.792,15.792,0,0,0-5.253,3.927,18.864,18.864,0,0,0-3.468,5.916,20.987,20.987,0,0,0-1.275,7.4,20.987,20.987,0,0,0,1.275,7.4,18.864,18.864,0,0,0,3.468,5.916,15.792,15.792,0,0,0,5.253,3.927,15.482,15.482,0,0,0,6.63,1.428,15.482,15.482,0,0,0,6.63-1.428,15.792,15.792,0,0,0,5.253-3.927,18.864,18.864,0,0,0,3.468-5.916,20.987,20.987,0,0,0,1.275-7.4,20.987,20.987,0,0,0-1.275-7.4,18.864,18.864,0,0,0-3.468-5.916,15.792,15.792,0,0,0-5.253-3.927A15.482,15.482,0,0,0,430.542-45.492Zm0-8.772a29.781,29.781,0,0,1,11.067,2.04,27.354,27.354,0,0,1,8.976,5.712,26.822,26.822,0,0,1,6.018,8.67A27.12,27.12,0,0,1,458.8-26.826,27.12,27.12,0,0,1,456.6-15.81a26.247,26.247,0,0,1-6.018,8.619,26.442,26.442,0,0,1-8.976,5.559A31.171,31.171,0,0,1,430.542.306a31.17,31.17,0,0,1-11.067-1.938A26.442,26.442,0,0,1,410.5-7.191a26.247,26.247,0,0,1-6.018-8.619,27.12,27.12,0,0,1-2.193-11.016,27.12,27.12,0,0,1,2.193-11.016,26.822,26.822,0,0,1,6.018-8.67,27.354,27.354,0,0,1,8.976-5.712A29.781,29.781,0,0,1,430.542-54.264Zm62.322,8.772a15.482,15.482,0,0,0-6.63,1.428,15.792,15.792,0,0,0-5.253,3.927,18.864,18.864,0,0,0-3.468,5.916,20.987,20.987,0,0,0-1.275,7.4,20.987,20.987,0,0,0,1.275,7.4,18.864,18.864,0,0,0,3.468,5.916,15.792,15.792,0,0,0,5.253,3.927,15.482,15.482,0,0,0,6.63,1.428,15.482,15.482,0,0,0,6.63-1.428,15.792,15.792,0,0,0,5.253-3.927,18.864,18.864,0,0,0,3.468-5.916,20.987,20.987,0,0,0,1.275-7.4,20.987,20.987,0,0,0-1.275-7.4,18.864,18.864,0,0,0-3.468-5.916,15.792,15.792,0,0,0-5.253-3.927A15.482,15.482,0,0,0,492.864-45.492Zm0-8.772a29.781,29.781,0,0,1,11.067,2.04,27.354,27.354,0,0,1,8.976,5.712,26.821,26.821,0,0,1,6.018,8.67,27.121,27.121,0,0,1,2.193,11.016,27.121,27.121,0,0,1-2.193,11.016,26.247,26.247,0,0,1-6.018,8.619,26.442,26.442,0,0,1-8.976,5.559A31.17,31.17,0,0,1,492.864.306,31.171,31.171,0,0,1,481.8-1.632a26.442,26.442,0,0,1-8.976-5.559A26.247,26.247,0,0,1,466.8-15.81a27.12,27.12,0,0,1-2.193-11.016A27.12,27.12,0,0,1,466.8-37.842a26.822,26.822,0,0,1,6.018-8.67,27.354,27.354,0,0,1,8.976-5.712A29.781,29.781,0,0,1,492.864-54.264Zm36.618,7.956,1.224-.918a3.217,3.217,0,0,0,1.734.51q.51,0,1.887-1.173a23.773,23.773,0,0,1,4.029-2.6,34.2,34.2,0,0,1,6.783-2.6,37.216,37.216,0,0,1,10.047-1.173,40.251,40.251,0,0,1,8.007.816,26.482,26.482,0,0,1,7.344,2.6,16.209,16.209,0,0,1,5.406,4.59,11.028,11.028,0,0,1,2.091,6.783,11.715,11.715,0,0,1-2.142,6.783,9.268,9.268,0,0,1-5.814,3.927v.2a13.851,13.851,0,0,1,7.191,4.029,10.708,10.708,0,0,1,2.8,7.6,13.6,13.6,0,0,1-2.6,8.568A19.081,19.081,0,0,1,571-3.009a26.817,26.817,0,0,1-8.517,2.652,61.835,61.835,0,0,1-8.721.663,40.2,40.2,0,0,1-8.568-.867,48.784,48.784,0,0,1-7.038-2.04q-3.06-1.173-5.049-2.142a7.862,7.862,0,0,0-2.8-.969,1.722,1.722,0,0,0-.867.2q-.357.2-.765.408l-.918-.306,5.916-14.688,1.122.612a1.749,1.749,0,0,0-.1.714v.714a5.335,5.335,0,0,0,2.244,4.182,20.918,20.918,0,0,0,5.355,3.111,34.493,34.493,0,0,0,6.528,1.938,31.142,31.142,0,0,0,5.763.663,31.23,31.23,0,0,0,4.335-.357A19.09,19.09,0,0,0,563.6-9.792a11.037,11.037,0,0,0,3.723-2.5,5.69,5.69,0,0,0,1.53-4.131,5.308,5.308,0,0,0-1.479-3.927,10.153,10.153,0,0,0-3.621-2.3,18.06,18.06,0,0,0-4.539-1.071,39.844,39.844,0,0,0-4.131-.255,17.152,17.152,0,0,0-4.233.459,3.274,3.274,0,0,0-2.4,2.3H547.23V-35.088h1.224a2.969,2.969,0,0,0,2.193,2.7,13.977,13.977,0,0,0,4.437.663,27.073,27.073,0,0,0,3.774-.306,15.692,15.692,0,0,0,4.029-1.122,9.432,9.432,0,0,0,3.213-2.244,5.045,5.045,0,0,0,1.326-3.57,4.7,4.7,0,0,0-1.173-3.315,7.844,7.844,0,0,0-3.06-1.989,17.135,17.135,0,0,0-4.182-.969,41.993,41.993,0,0,0-4.641-.255,26.726,26.726,0,0,0-5.61.612,27.462,27.462,0,0,0-5.2,1.632A17.127,17.127,0,0,0,539.682-41a3.317,3.317,0,0,0-1.53,2.448,5.529,5.529,0,0,0,.1.969,5.553,5.553,0,0,0,.306,1.071l-.918.612Z" transform="translate(-8.976 56.1)" fill="#2b2e34"/>
</svg>
