<svg xmlns="http://www.w3.org/2000/svg" width="413.946" height="33.002" viewBox="0 0 413.946 33.002">
  <path id="Path_96" data-name="Path 96" d="M21.228-4.988a21.535,21.535,0,0,0,4.756-.464,7.443,7.443,0,0,0,3.364-1.653,7.235,7.235,0,0,0,2-3.161,15.8,15.8,0,0,0,.667-4.988,15.8,15.8,0,0,0-.667-4.988,7.235,7.235,0,0,0-2-3.161,7.443,7.443,0,0,0-3.364-1.653,21.535,21.535,0,0,0-4.756-.464h-8.99V-4.988Zm2.32-25.52a18.509,18.509,0,0,1,5.945.928,13.066,13.066,0,0,1,4.785,2.813,13.042,13.042,0,0,1,3.19,4.756,17.976,17.976,0,0,1,1.16,6.757A17.976,17.976,0,0,1,37.468-8.5a13.042,13.042,0,0,1-3.19,4.756A13.066,13.066,0,0,1,29.493-.928,18.509,18.509,0,0,1,23.548,0H4.292V-1.044q1.334,0,1.334-1.044V-28.42q0-1.044-1.334-1.044v-1.044Zm40.89,4.988a14.568,14.568,0,0,0-4.408.7,13.469,13.469,0,0,0-3.973,2A10.413,10.413,0,0,0,53.186-19.6a8.559,8.559,0,0,0-1.1,4.35,8.559,8.559,0,0,0,1.1,4.35,10.413,10.413,0,0,0,2.871,3.219,13.469,13.469,0,0,0,3.973,2,14.568,14.568,0,0,0,4.408.7,14.568,14.568,0,0,0,4.408-.7,13.469,13.469,0,0,0,3.973-2A10.413,10.413,0,0,0,75.69-10.9a8.559,8.559,0,0,0,1.1-4.35,8.559,8.559,0,0,0-1.1-4.35,10.413,10.413,0,0,0-2.871-3.219,13.468,13.468,0,0,0-3.973-2A14.568,14.568,0,0,0,64.438-25.52Zm0-5.336a23.29,23.29,0,0,1,6.5.957,20.179,20.179,0,0,1,6.032,2.871,15.534,15.534,0,0,1,4.466,4.843,13.321,13.321,0,0,1,1.74,6.931,13.321,13.321,0,0,1-1.74,6.931A15.534,15.534,0,0,1,76.966-3.48,18.677,18.677,0,0,1,70.934-.7a25.458,25.458,0,0,1-6.5.87,25.458,25.458,0,0,1-6.5-.87A18.677,18.677,0,0,1,51.91-3.48a15.534,15.534,0,0,1-4.466-4.843,13.321,13.321,0,0,1-1.74-6.931,13.321,13.321,0,0,1,1.74-6.931,15.534,15.534,0,0,1,4.466-4.843A20.179,20.179,0,0,1,57.942-29.9,23.29,23.29,0,0,1,64.438-30.856ZM92.278-1.044q1.1,0,1.1-1.044V-28.42q0-1.044-1.1-1.044v-1.044H102.2v1.044q-.464,0-.464.58,0,.464,1.16,1.624L119.538-9.976V-28.42q0-1.044-1.508-1.044v-1.044h8.758v1.044q-1.1,0-1.1,1.044V-2.088q0,1.044,1.1,1.044V0h-9.4V-1.044q.754,0,.754-.522,0-.406-.928-1.334L99.528-21.344V-2.088q0,1.044,1.334,1.044V0H92.278Zm42.514-15.6a7.814,7.814,0,0,0,1.972-.9,10.526,10.526,0,0,0,2-1.566,8.767,8.767,0,0,0,1.479-1.943,3.448,3.448,0,0,0,.464-2.088.66.66,0,0,0-.638-.464,8.95,8.95,0,0,0-.986-.058,3.668,3.668,0,0,1-2.523-.957,3.426,3.426,0,0,1-1.073-2.7,4.008,4.008,0,0,1,1.189-2.9,3.678,3.678,0,0,1,2.7-1.218,4.021,4.021,0,0,1,3.509,1.682,6.952,6.952,0,0,1,1.189,4.118,9,9,0,0,1-.783,3.683,12.506,12.506,0,0,1-2.059,3.219,13.154,13.154,0,0,1-2.958,2.494,11.292,11.292,0,0,1-3.48,1.45ZM169.244-2.088q0,1.044,1.276,1.044V0h-8.932V-1.044a1.114,1.114,0,0,0,.725-.261.952.952,0,0,0,.319-.783V-25.172h-9.57a1.977,1.977,0,0,0-1.015.29,1.169,1.169,0,0,0-.493,1.1H150.51V-31.9h1.044a1.169,1.169,0,0,0,.493,1.1,1.977,1.977,0,0,0,1.015.29h25.752a1.977,1.977,0,0,0,1.015-.29,1.169,1.169,0,0,0,.493-1.1h1.044v8.12h-1.044a1.169,1.169,0,0,0-.493-1.1,1.977,1.977,0,0,0-1.015-.29h-9.57ZM225.5-18.56a12.006,12.006,0,0,0,4.321-.667,2.7,2.7,0,0,0,1.711-2.813,2.7,2.7,0,0,0-1.711-2.813,12.006,12.006,0,0,0-4.321-.667H214.426v6.96Zm0,13.224q3.654,0,5.249-1.131a3.5,3.5,0,0,0,1.6-2.987,3.5,3.5,0,0,0-1.6-2.987q-1.6-1.131-5.249-1.131H214.426v8.236Zm-1.16-25.172a30,30,0,0,1,5.162.435,15.944,15.944,0,0,1,4.408,1.392,8.575,8.575,0,0,1,3.074,2.494,6.125,6.125,0,0,1,1.16,3.8,5.3,5.3,0,0,1-1.682,4.205,11.974,11.974,0,0,1-4,2.291v.116a11.355,11.355,0,0,1,4.611,2.581A6.623,6.623,0,0,1,238.96-8.12a6.984,6.984,0,0,1-.754,3.219,7.42,7.42,0,0,1-2.233,2.581,11.063,11.063,0,0,1-3.625,1.711A17.863,17.863,0,0,1,227.476,0H206.19V-1.044q1.624,0,1.624-1.044V-28.42q0-1.044-1.624-1.044v-1.044Zm52.548,6.264a1.064,1.064,0,0,0-.493-.957,3.332,3.332,0,0,0-1.711-.319H255.9v7.192h11.368a4.1,4.1,0,0,0,1.8-.319q.638-.319.638-1.653h1.044v9.048H269.7q0-1.334-.638-1.711a3.556,3.556,0,0,0-1.8-.377H255.9v8h19.372a2.335,2.335,0,0,0,1.421-.406,1.3,1.3,0,0,0,.551-1.1h1.044V1.1H277.24q0-.87-.551-.986A7.113,7.113,0,0,0,275.268,0H248.24V-1.044a1.114,1.114,0,0,0,.725-.261.952.952,0,0,0,.319-.783V-28.42a.952.952,0,0,0-.319-.783,1.114,1.114,0,0,0-.725-.261v-1.044h26.448a2.9,2.9,0,0,0,1.711-.377,1.212,1.212,0,0,0,.493-1.015h1.044v7.656ZM306.878-9.57l.58.29a1.837,1.837,0,0,0,.232.928,4.137,4.137,0,0,0,1.6,1.363A16.259,16.259,0,0,0,312.011-5.8a23.774,23.774,0,0,0,3.219.841,16.36,16.36,0,0,0,3.016.319q.986,0,2.552-.145a15.187,15.187,0,0,0,3.074-.609,8.646,8.646,0,0,0,2.61-1.276,2.54,2.54,0,0,0,1.1-2.146,2.165,2.165,0,0,0-1.015-1.972,7.425,7.425,0,0,0-2.668-.928,28.856,28.856,0,0,0-3.77-.377q-2.117-.087-4.321-.261a39.38,39.38,0,0,1-4.321-.58,11.961,11.961,0,0,1-3.77-1.363,7.5,7.5,0,0,1-2.668-2.61,8.169,8.169,0,0,1-1.015-4.321,8.052,8.052,0,0,1,.841-3.538,8.593,8.593,0,0,1,2.581-3.074,14.219,14.219,0,0,1,4.408-2.175,20.905,20.905,0,0,1,6.264-.841,26.861,26.861,0,0,1,5.336.464,39.583,39.583,0,0,1,3.915.986q1.653.522,2.784.986a5.2,5.2,0,0,0,1.885.464,1.6,1.6,0,0,0,1.16-.348l.7.464-4,7.25-.58-.232a3.2,3.2,0,0,0-.464-1.334,4.954,4.954,0,0,0-1.537-1.363,13.329,13.329,0,0,0-2.523-1.189,20.542,20.542,0,0,0-3.132-.841,18.017,18.017,0,0,0-3.364-.319,17.914,17.914,0,0,0-2.639.2,12.426,12.426,0,0,0-2.465.609,5.437,5.437,0,0,0-1.827,1.073,2.156,2.156,0,0,0-.725,1.653,2.363,2.363,0,0,0,1.015,2.088,7.4,7.4,0,0,0,2.668,1.044,25.1,25.1,0,0,0,3.77.464q2.117.116,4.321.29a35.219,35.219,0,0,1,4.321.609,12.485,12.485,0,0,1,3.77,1.392,7.58,7.58,0,0,1,2.668,2.581A7.89,7.89,0,0,1,334.2-9.628a7.443,7.443,0,0,1-1.6,4.93,11.244,11.244,0,0,1-3.973,3.016A17.907,17.907,0,0,1,323.495-.2a38,38,0,0,1-5.133.377A34.077,34.077,0,0,1,312.823-.2a20.69,20.69,0,0,1-3.712-.928,24.863,24.863,0,0,1-2.349-.986,3.486,3.486,0,0,0-1.508-.435.964.964,0,0,0-.754.464l-.812-.464Zm63.336-18.85q0-1.044-1.276-1.044v-1.044h8.932v1.044a1.114,1.114,0,0,0-.725.261.952.952,0,0,0-.319.783V-2.088a.952.952,0,0,0,.319.783,1.114,1.114,0,0,0,.725.261V0h-8.932V-1.044q1.276,0,1.276-1.044v-10.9H351.538v10.9a.952.952,0,0,0,.319.783,1.114,1.114,0,0,0,.725.261V0h-8.758V-1.044q1.1,0,1.1-1.044V-28.42q0-1.044-1.1-1.044v-1.044h8.758v1.044a1.114,1.114,0,0,0-.725.261.952.952,0,0,0-.319.783v9.86h18.676Zm25.926-2.088v1.044a3.287,3.287,0,0,0-.986.145.669.669,0,0,0-.464.725,4.9,4.9,0,0,0,.841,1.653q.841,1.305,1.972,2.958t2.349,3.393q1.218,1.74,1.972,2.958l6.786-9.338q.464-.7.754-1.1a1.325,1.325,0,0,0,.29-.754q0-.406-.551-.522a4.954,4.954,0,0,0-1.015-.116v-1.044h10.15v1.044a4.148,4.148,0,0,0-.87.087,2.236,2.236,0,0,0-.841.406,5.223,5.223,0,0,0-.928.928q-.493.609-1.189,1.653l-9.86,13.978V-2.088q0,1.044,1.334,1.044V0H396.72V-1.044a1.409,1.409,0,0,0,.87-.261.916.916,0,0,0,.348-.783V-12.412l-11.194-15.66a3.145,3.145,0,0,0-1.247-.986,3.416,3.416,0,0,0-1.421-.406v-1.044Z" transform="translate(-4.292 31.9)" fill="#2b2e34"/>
</svg>
